HIERARCHY
ROOT Hips
{
  OFFSET 48.685 94.3175 4.71871
  CHANNELS 6 Xposition Yposition Zposition Zrotation Xrotation Yrotation
  JOINT spine
  {
    OFFSET 0 7.80059 0.448573
    CHANNELS 3 Zrotation Xrotation Yrotation
    JOINT spine1
    {
      OFFSET 0 10.1364 0
      CHANNELS 3 Zrotation Xrotation Yrotation
      JOINT spine2
      {
        OFFSET 0 9.71251 0
        CHANNELS 3 Zrotation Xrotation Yrotation
        JOINT Neck
        {
          OFFSET 0 24.9361 1.18887
          CHANNELS 3 Zrotation Xrotation Yrotation
          JOINT Head
          {
            OFFSET 0 7.53384 0
            CHANNELS 3 Zrotation Xrotation Yrotation
            End Site
            {
              OFFSET 0 18.2361 -6.01402
            }
          }
        }
        JOINT RightShoulder
        {
          OFFSET -4.08965 10.4888 -0.569457
          CHANNELS 3 Zrotation Xrotation Yrotation
          JOINT RightArm
          {
            OFFSET 0 13.757 0
            CHANNELS 3 Zrotation Xrotation Yrotation
            JOINT RightArmRoll
            {
              OFFSET 0 6.94478 0
              CHANNELS 3 Zrotation Xrotation Yrotation
              JOINT RightForeArm
              {
                OFFSET 0 20.2277 0
                CHANNELS 3 Zrotation Xrotation Yrotation
                JOINT RightForeArmRoll
                {
                  OFFSET 0 7.79312 0
                  CHANNELS 3 Zrotation Xrotation Yrotation
                  JOINT RightHand
                  {
                    OFFSET 0 15.6391 0
                    CHANNELS 3 Zrotation Xrotation Yrotation
                    End Site
                    {
                      OFFSET 0 0 0
                    }
                  }
                }
              }
            }
          }
        }
        JOINT LeftShoulder
        {
          OFFSET 4.08965 10.4888 -0.569457
          CHANNELS 3 Zrotation Xrotation Yrotation
          JOINT LeftArm
          {
            OFFSET 0 13.757 0
            CHANNELS 3 Zrotation Xrotation Yrotation
            JOINT LeftArmRoll
            {
              OFFSET 0 6.94478 0
              CHANNELS 3 Zrotation Xrotation Yrotation
              JOINT LeftForeArm
              {
                OFFSET 0 20.2277 0
                CHANNELS 3 Zrotation Xrotation Yrotation
                JOINT LeftForeArmRoll
                {
                  OFFSET 0 7.79312 0
                  CHANNELS 3 Zrotation Xrotation Yrotation
                  JOINT LeftHand
                  {
                    OFFSET 0 15.6391 0
                    CHANNELS 3 Zrotation Xrotation Yrotation
                    End Site
                    {
                      OFFSET 0 0 0
                    }
                  }
                }
              }
            }
          }
        }
      }
    }
  }
  JOINT RightUpLeg
  {
    OFFSET -6.91416 -1.26788 -1.06358
    CHANNELS 3 Zrotation Xrotation Yrotation
    JOINT RightUpLegRoll
    {
      OFFSET 0 18.3378 0
      CHANNELS 3 Zrotation Xrotation Yrotation
      JOINT RightLeg
      {
        OFFSET 0 -22.7085 0
        CHANNELS 3 Zrotation Xrotation Yrotation
        JOINT RightLegRoll
        {
          OFFSET 0 22.7828 0
          CHANNELS 3 Zrotation Xrotation Yrotation
          JOINT RightFoot
          {
            OFFSET 0 18.9629 0
            CHANNELS 3 Zrotation Xrotation Yrotation
            JOINT RightToeBase
            {
              OFFSET 0 15.852 0
              CHANNELS 3 Zrotation Xrotation Yrotation
              End Site
              {
                OFFSET 0.00671906 7.67701 -0.884893
              }
            }
          }
        }
      }
    }
  }
  JOINT LeftUpLeg
  {
    OFFSET 6.91416 -1.26788 -1.06358
    CHANNELS 3 Zrotation Xrotation Yrotation
    JOINT LeftUpLegRoll
    {
      OFFSET 0 18.3379 0
      CHANNELS 3 Zrotation Xrotation Yrotation
      JOINT LeftLeg
      {
        OFFSET 0 22.7084 0
        CHANNELS 3 Zrotation Xrotation Yrotation
        JOINT LeftLegRoll
        {
          OFFSET 0 22.9934 0
          CHANNELS 3 Zrotation Xrotation Yrotation
          JOINT LeftFoot
          {
            OFFSET 0 18.7522 0
            CHANNELS 3 Zrotation Xrotation Yrotation
            JOINT LeftToeBase
            {
              OFFSET 0 15.852 0
              CHANNELS 3 Zrotation Xrotation Yrotation
              End Site
              {
                OFFSET -0.030112 7.677 -0.884893
              }
            }
          }
        }
      }
    }
  }
}
MOTION
Frames: 11
Frame Time: 0.00208333
46.2568 102.209 10.4791 0.879163 2.15467 0.117546 -0.264811 0.0358455 0.0433289 -0.531336 4.07432 0.121482 -0.533616 5.71937 0.130554 -11.5723 -6.82794 -2.96707 11.2872 -2.24072 -2.73376 60.8904 -8.53606 -5.36013 101.803 -24.5572 -4.07639 -4.40564e-007 6.46116e-007 -7.04608e-008 13.2424 73.1592 -12.7803 -3.46924e-006 4.95891e-007 -3 8.0291 -4.95148 0.69766 -60.8755 -9.89532 6.16094 -105.122 -26.5573 -9.51552 -1.56946e-005 2.17567e-007 -8.66675e-007 -13.7636 70.9449 15.0465 1.4776e-006 -8.07451e-006 3 -8.03007 -4.95144 -0.697667 178.851 16.3915 -1.87902 180 7.01555e-015 178.959 -179.069 27.1164 178.687 3.03726e-006 -2.56543e-006 0.396477 -18.6636 68.2479 19.7238 8.098 24.6595 -3.47066 -179.238 15.2604 1.94919 4.54188e-006 -4.6773e-006 -1.0449 -7.3206 -28.9751 -1.21965 5.06495e-006 -4.01757e-006 -0.410228 17.6831 67.4528 -19.0648 -8.09813 24.6603 3.46391 
46.219 101.887 10.5119 0.890121 2.14512 0.19359 -0.28339 0.0373233 0.028515 -0.568438 4.07734 0.0943041 -0.570448 5.72238 0.103969 -11.3204 -6.66496 -2.9259 11.1065 -2.43151 -2.68913 61.36 -8.44068 -5.31525 101.68 -24.2688 -3.65558 -4.40564e-007 6.46116e-007 -7.04608e-008 13.5309 72.6971 -12.8951 -3.46924e-006 4.95891e-007 -3 8.0291 -4.95148 0.69766 -60.8957 -9.8241 6.11636 -105.471 -26.2252 -9.93017 -1.56946e-005 2.17567e-007 -8.66675e-007 -13.5437 70.4734 14.7094 1.4776e-006 -8.07451e-006 3 -8.03007 -4.95144 -0.697667 178.828 16.4183 -1.79899 180 7.01555e-015 178.957 -179.122 27.3934 178.686 3.03726e-006 -2.56542e-006 0.392915 -18.5653 68.1505 19.6401 8.08618 24.4824 -3.46548 -179.299 15.4149 2.00966 4.54188e-006 -4.6773e-006 -1.04073 -7.29195 -29.1341 -1.21523 5.06495e-006 -4.01757e-006 -0.407365 17.5856 67.4207 -19.031 -8.08638 24.4834 3.45666 
46.1807 101.495 10.4424 0.899393 2.13569 0.270962 -0.301442 0.0403547 0.0131227 -0.604473 4.08346 0.0658987 -0.606197 5.7285 0.0761378 -11.0704 -6.51009 -2.88675 10.9262 -2.62717 -2.64494 61.8361 -8.34365 -5.26991 101.551 -23.9536 -3.22496 -4.40564e-007 6.46116e-007 -7.04608e-008 13.7988 72.2213 -12.9898 -3.46924e-006 4.95891e-007 -3 8.0291 -4.95148 0.69766 -60.9218 -9.7489 6.06959 -105.818 -25.8657 -10.364 -1.56946e-005 2.17567e-007 -8.66675e-007 -13.3148 69.9955 14.3649 1.4776e-006 -8.07451e-006 3 -8.03007 -4.95144 -0.697667 178.804 16.4594 -1.7102 180 7.01554e-015 178.955 -179.182 27.7118 178.686 3.03726e-006 -2.56542e-006 0.389814 -18.4668 68.0512 19.5559 8.07495 24.3135 -3.46059 -179.357 15.5899 2.05657 4.54188e-006 -4.6773e-006 -1.0369 -7.26873 -29.3429 -1.21482 5.06495e-006 -4.01757e-006 -0.405162 17.4943 67.3917 -18.9999 -8.07522 24.3148 3.4498 
46.1425 101.158 10.4581 0.905686 2.12725 0.348049 -0.318429 0.0446213 -0.0024798 -0.638368 4.09205 0.0369319 -0.639798 5.73709 0.0477084 -10.8275 -6.36228 -2.85006 10.7503 -2.82847 -2.60171 62.3125 -8.24622 -5.22463 101.424 -23.6115 -2.78436 -4.40564e-007 6.46116e-007 -7.04608e-008 14.0426 71.7292 -13.0614 -3.46924e-006 4.95891e-007 -3 8.0291 -4.95148 0.69766 -60.9562 -9.66949 6.02064 -106.162 -25.4792 -10.8135 -1.56946e-005 2.17567e-007 -8.66675e-007 -13.0749 69.5132 14.0125 1.4776e-006 -8.07451e-006 3 -8.03007 -4.95144 -0.697667 178.782 16.5162 -1.61597 180 7.01554e-015 178.952 -179.249 28.07 178.688 3.03726e-006 -2.56542e-006 0.387555 -18.3735 67.9551 19.4752 8.06513 24.1656 -3.45634 -179.411 15.7843 2.08876 4.54188e-006 -4.6773e-006 -1.03368 -7.25092 -29.5994 -1.21847 5.06495e-006 -4.01756e-006 -0.403877 17.417 67.369 -18.9748 -8.06548 24.167 3.44383 
46.138 100.737 10.3878 0.907702 2.12069 0.423237 -0.333815 0.0498046 -0.0179243 -0.66905 4.10247 0.00806945 -0.670182 5.74751 0.0193295 -10.5969 -6.2205 -2.81628 10.5827 -3.03618 -2.55998 62.7829 -8.14962 -5.17995 101.302 -23.2429 -2.33361 -4.40564e-007 6.46116e-007 -7.04608e-008 14.2596 71.2177 -13.1073 -3.46924e-006 4.95891e-007 -3 8.0291 -4.95148 0.69766 -61.0009 -9.5856 5.96951 -106.5 -25.0663 -11.2751 -1.56946e-005 2.17567e-007 -8.66675e-007 -12.8222 69.0284 13.6519 1.4776e-006 -8.07451e-006 3 -8.03007 -4.95144 -0.697667 178.767 16.5904 -1.51966 180 7.01553e-015 178.95 -179.321 28.4669 178.691 3.03726e-006 -2.56542e-006 0.386522 -18.2906 67.8671 19.4023 8.05754 24.0509 -3.45307 -179.46 15.997 2.10502 4.54188e-006 -4.67729e-006 -1.03133 -7.23853 -29.9013 -1.22622 5.06495e-006 -4.01756e-006 -0.403766 17.3614 67.3558 -18.9585 -8.05796 24.0525 3.43923 
46.0909 100.375 10.379 0.904137 2.11689 0.494911 -0.347064 0.055586 -0.0328425 -0.695449 4.11409 -0.0200227 -0.696286 5.75912 -0.00835046 -10.384 -6.08371 -2.78585 10.4272 -3.25107 -2.52028 63.241 -8.0551 -5.1364 101.192 -22.848 -1.87254 -4.40564e-007 6.46116e-007 -7.04608e-008 14.447 70.6841 -13.1256 -3.46924e-006 4.95891e-007 -3 8.0291 -4.95148 0.69766 -61.0582 -9.49697 5.91623 -106.828 -24.6275 -11.7452 -1.56946e-005 2.17567e-007 -8.66675e-007 -12.5546 68.5429 13.2826 1.4776e-006 -8.07451e-006 3 -8.03007 -4.95144 -0.697667 178.761 16.6834 -1.42459 180 7.01552e-015 178.947 -179.395 28.901 178.695 3.03726e-006 -2.56542e-006 0.387098 -18.223 67.7923 19.3411 8.05299 23.9821 -3.45112 -179.504 16.227 2.10418 4.54188e-006 -4.67729e-006 -1.0301 -7.23159 -30.2464 -1.23815 5.06495e-006 -4.01756e-006 -0.405085 17.3354 67.3554 -18.9542 -8.05346 23.9838 3.43648 
46.0474 100 10.399 0.893683 2.11674 0.56146 -0.357641 0.061647 -0.0468662 -0.716495 4.12626 -0.0466785 -0.717047 5.77129 -0.0346825 -10.1937 -5.95088 -2.75921 10.2877 -3.47391 -2.48314 63.6808 -7.96391 -5.0945 101.098 -22.4268 -1.40096 -4.40564e-007 6.46116e-007 -7.04608e-008 14.6029 70.1254 -13.1142 -3.46924e-006 4.95891e-007 -3 8.0291 -4.95148 0.69766 -61.1302 -9.40335 5.86081 -107.145 -24.1634 -12.2204 -1.56946e-005 2.17567e-007 -8.66675e-007 -12.2699 68.0586 12.9039 1.4776e-006 -8.07451e-006 3 -8.03007 -4.95144 -0.697667 178.767 16.7969 -1.33412 180 7.01552e-015 178.943 -179.471 29.371 178.7 3.03726e-006 -2.56542e-006 0.389665 -18.1759 67.7358 19.2955 8.0523 23.9717 -3.45083 -179.54 16.4731 2.08502 4.54188e-006 -4.67729e-006 -1.03027 -7.23014 -30.6324 -1.25433 5.06495e-006 -4.01756e-006 -0.408091 17.3467 67.3709 -18.9649 -8.05277 23.9734 3.43606 
46.006 99.6285 10.4139 0.875031 2.12111 0.621269 -0.365012 0.0676692 -0.0596272 -0.731122 4.13836 -0.0712318 -0.731403 5.78338 -0.0590179 -10.0315 -5.82096 -2.73682 10.168 -3.70547 -2.44909 64.096 -7.87728 -5.05476 101.027 -21.9797 -0.918683 -4.40564e-007 6.46116e-007 -7.04608e-008 14.7254 69.5388 -13.072 -3.46924e-006 4.95891e-007 -3 8.0291 -4.95148 0.69766 -61.2191 -9.30448 5.80326 -107.449 -23.6747 -12.6974 -1.56946e-005 2.17567e-007 -8.66675e-007 -11.966 67.5773 12.5152 1.4776e-006 -8.07451e-006 3 -8.03007 -4.95144 -0.697667 178.788 16.9325 -1.25159 180 7.01551e-015 178.939 -179.547 29.8754 178.707 3.03726e-006 -2.56542e-006 0.394607 -18.1542 67.7025 19.2694 8.0563 24.0322 -3.45254 -179.568 16.7342 2.0463 4.54188e-006 -4.67729e-006 -1.03209 -7.23426 -31.057 -1.27486 5.06495e-006 -4.01756e-006 -0.413042 17.4031 67.4055 -18.9937 -8.05673 24.0338 3.43848 
45.9455 99.187 10.3903 0.84687 2.1309 0.672726 -0.368642 0.0733341 -0.0707572 -0.738264 4.14972 -0.0930165 -0.738296 5.79474 -0.0807072 -9.90244 -5.69292 -2.7191 10.0719 -3.94653 -2.41867 64.4804 -7.79646 -5.01773 100.983 -21.5068 -0.425505 -4.40564e-007 6.46116e-007 -7.04608e-008 14.8134 68.9214 -12.9981 -3.46924e-006 4.95891e-007 -3 8.0291 -4.95148 0.69766 -61.3271 -9.20011 5.7436 -107.736 -23.162 -13.173 -1.56946e-005 2.17567e-007 -8.66675e-007 -11.6406 67.1009 12.1156 1.4776e-006 -8.07451e-006 3 -8.03007 -4.95144 -0.697667 178.829 17.0917 -1.18036 180 7.0155e-015 178.934 -179.622 30.4131 178.714 3.03726e-006 -2.56542e-006 0.402307 -18.1628 67.6976 19.2667 8.06582 24.176 -3.45664 -179.586 17.0092 1.98679 4.54188e-006 -4.6773e-006 -1.03584 -7.24403 -31.5181 -1.29983 5.06495e-006 -4.01757e-006 -0.420192 17.5128 67.4625 -19.044 -8.06617 24.1774 3.44425 
45.8925 98.8286 10.4234 0.807892 2.14697 0.714217 -0.367997 0.078323 -0.0798879 -0.736856 4.15973 -0.111366 -0.736668 5.80475 -0.0991014 -9.81178 -5.56571 -2.70652 10.0033 -4.19786 -2.39241 64.8278 -7.7227 -4.98391 100.972 -21.0084 0.0787913 -4.40564e-007 6.46116e-007 -7.04608e-008 14.8659 68.2703 -12.8918 -3.46924e-006 4.95891e-007 -3 8.0291 -4.95148 0.69766 -61.4563 -9.08997 5.68184 -108.005 -22.626 -13.644 -1.56946e-005 2.17567e-007 -8.66675e-007 -11.2913 66.6313 11.7042 1.4776e-006 -8.07451e-006 3 -8.03007 -4.95144 -0.697667 178.892 17.2762 -1.12382 180 7.01548e-015 178.929 -179.694 30.9824 178.723 3.03726e-006 -2.56542e-006 0.413148 -18.207 67.726 19.2916 8.08174 24.4157 -3.46354 -179.594 17.297 1.90521 4.54188e-006 -4.6773e-006 -1.04176 -7.25956 -32.0134 -1.32936 5.06495e-006 -4.01757e-006 -0.4298 17.6838 67.5451 -19.119 -8.08196 24.4168 3.45395 
45.9076 98.3519 10.2448 0.756794 2.17023 0.744129 -0.362544 0.0823176 -0.0866512 -0.725837 4.16775 -0.125614 -0.725461 5.81276 -0.113551 -9.76472 -5.43831 -2.69951 9.96607 -4.46021 -2.37086 65.1322 -7.65724 -4.95383 100.999 -20.4846 0.594439 -4.40564e-007 6.46116e-007 -7.04608e-008 14.8825 67.5824 -12.753 -3.46924e-006 4.95891e-007 -3 8.0291 -4.95148 0.69766 -61.609 -8.97381 5.61801 -108.254 -22.0676 -14.1073 -1.56946e-005 2.17567e-007 -8.66675e-007 -10.9157 66.1701 11.2801 1.4776e-006 -8.07451e-006 3 -8.03007 -4.95144 -0.697667 178.981 17.4875 -1.08537 180 7.01547e-015 178.923 -179.761 31.5823 178.733 3.03726e-006 -2.56543e-006 0.427513 -18.2923 67.7928 19.3484 8.10497 24.7637 -3.47373 -179.589 17.5965 1.80028 4.54188e-006 -4.6773e-006 -1.05012 -7.28097 -32.5406 -1.36359 5.06495e-006 -4.01757e-006 -0.442121 17.9247 67.6563 -19.2226 -8.10506 24.7644 3.4682 
